<svg version="1.1" xmlns="http://www.w3.org/2000/svg" xmlns:xlink="http://www.w3.org/1999/xlink" viewBox="0 0 25 25">
<path id="Backward" d="M-0.000,17.969 C-0.000,11.979 -0.000,5.989 -0.000,-0.000 C6.007,-0.000 12.014,-0.000 18.021,-0.000 C18.268,0.140 18.335,0.355 18.334,0.631 C18.326,2.532 18.330,4.433 18.330,6.333 C18.330,6.442 18.330,6.550 18.330,6.670 C18.497,6.670 18.618,6.670 18.739,6.670 C20.632,6.670 22.524,6.674 24.416,6.667 C24.703,6.665 24.900,6.757 25.000,7.031 C25.000,13.021 25.000,19.010 25.000,25.000 C18.993,25.000 12.986,25.000 6.979,25.000 C6.733,24.860 6.665,24.645 6.666,24.369 C6.674,22.468 6.670,20.567 6.670,18.667 C6.670,18.558 6.670,18.450 6.670,18.330 C6.503,18.330 6.382,18.330 6.261,18.330 C4.369,18.329 2.477,18.326 0.585,18.334 C0.297,18.334 0.100,18.242 -0.000,17.969 zM7.515,7.505 C7.515,13.074 7.515,18.614 7.515,24.152 C13.073,24.152 18.614,24.152 24.152,24.152 C24.152,18.593 24.152,13.053 24.152,7.505 C18.600,7.505 13.065,7.505 7.515,7.505 zM0.848,0.839 C0.848,6.407 0.848,11.947 0.848,17.483 C2.796,17.483 4.726,17.483 6.670,17.483 C6.670,17.308 6.670,17.152 6.670,16.997 C6.670,13.777 6.670,10.557 6.670,7.338 C6.670,6.782 6.783,6.670 7.341,6.670 C10.561,6.670 13.781,6.670 17.000,6.670 C17.162,6.670 17.324,6.670 17.485,6.670 C17.485,4.705 17.485,2.775 17.485,0.839 C11.932,0.839 6.398,0.839 0.848,0.839 z" fill="#757575" />
</svg>
